<svg width="1440" height="1440" viewBox="0 0 1440 1440" fill="none" xmlns="http://www.w3.org/2000/svg">
<path d="M300.115 591.477C300.115 567.025 308.206 545.808 324.388 527.828C340.93 509.489 362.146 495.824 388.037 486.834C414.288 477.844 441.437 473.529 469.486 473.889C495.017 474.608 519.29 477.485 542.304 482.519C565.319 487.553 585.276 493.667 602.177 500.859L614.044 616.829L604.335 615.75C599.66 577.273 587.254 547.247 567.117 525.671C545.541 502.656 517.852 488.452 484.05 483.058C453.843 480.182 431.189 485.396 416.086 498.701C401.342 512.006 397.207 528.727 403.679 548.865C408.354 562.889 418.423 575.475 433.886 586.623C449.708 597.411 472.722 610.536 502.928 625.999C533.135 641.461 557.408 655.306 575.747 667.532C594.087 679.399 609.19 694.142 621.056 711.763C633.283 729.383 638.497 749.7 636.699 772.715C634.541 794.65 625.012 815.507 608.111 835.285C591.569 854.703 569.454 869.986 541.765 881.133C514.436 892.281 484.589 896.956 452.225 895.158C428.851 894.438 404.399 889.764 378.867 881.133C353.336 872.503 331.76 859.917 314.14 843.375C296.519 826.474 287.529 806.337 287.17 782.963C287.889 767.141 292.744 754.375 301.733 744.666C311.083 734.597 323.13 729.743 337.873 730.102C352.976 730.102 364.843 735.137 373.473 745.205C382.104 755.274 383.182 768.579 376.71 785.121C370.956 800.583 370.057 815.866 374.013 830.969C377.968 845.713 386.599 858.299 399.904 868.727C413.568 878.796 430.829 884.729 451.686 886.527C484.05 888.685 507.244 883.111 521.268 869.806C535.292 856.501 540.686 839.78 537.45 819.642C534.213 800.943 523.605 784.761 505.625 771.096C488.005 757.432 461.934 741.429 427.413 723.09C399.724 708.346 377.429 695.581 360.528 684.793C343.627 673.645 329.243 660.34 317.376 644.877C305.509 629.415 299.756 611.615 300.115 591.477ZM803.204 481.44L905.15 741.969L1010.87 481.44H1151.11V486.834C1128.82 490.43 1117.67 502.836 1117.67 524.053V850.388C1117.67 871.604 1128.82 884.01 1151.11 887.606V893H968.259V887.606C990.914 884.01 1002.24 871.604 1002.24 850.388V532.144L856.065 893H843.119L696.403 529.447V850.388C696.403 871.604 707.731 884.01 730.385 887.606V893H655.409V887.606C677.704 884.01 688.852 871.604 688.852 850.388V524.053C688.852 502.836 677.704 490.43 655.409 486.834V481.44H803.204Z" fill="white"/>
</svg>
